[b]MoviesBlue Movie (1978, A. Cavallone).avi
Format : AVI
Format/Info : Audio Video Interleave
File size : 700 MiB
Duration : 1h 20mn
Overall bit rate mode : Variable
Overall bit rate : 1 217 Kbps
Writing application : VirtualDubMod 1.5.10.2 (build 2540/release)
Writing library : VirtualDubMod build 2540/release

Video
ID : 0
Format : MPEG-4 Visual
Format profile : Advanced Simple@L5
Format settings, BVOP : 2
Format settings, QPel : No
Format settings, GMC : No warppoints
Format settings, Matrix : Default (H.263)
Muxing mode : Packed bitstream
Codec ID : XVID
Codec ID/Hint : XviD
Duration : 1h 20mn
Bit rate : 1 084 Kbps
Width : 576 pixels
Height : 464 pixels
Display aspect ratio : 5:4
Frame rate : 23.976 fps
Color space : YUV
Chroma subsampling : 4:2:0
Bit depth : 8 bits
Scan type : Progressive
Compression mode : Lossy
Bits/(Pixel*Frame) : 0.169
Stream size : 623 MiB (89%)
Writing library : XviD 1.0.3 (UTC 2004-12-20)

Audio
ID : 1
Format : MPEG Audio
Format version : Version 1
Format profile : Layer 3
Mode : Joint stereo
Mode extension : MS Stereo
Codec ID : 55
Codec ID/Hint : MP3
Duration : 1h 20mn
Bit rate mode : Variable
Bit rate : 121 Kbps
Nominal bit rate : 128 Kbps
Channel(s) : 2 channels
Sampling rate : 48.0 KHz
Compression mode : Lossy
Stream size : 69.5 MiB (10%)
Alignment : Aligned on interleaves
Interleave, duration : 24 ms (0.58 video frame)
Interleave, preload duration : 152 ms
Writing library : LAME3.90.
Encoding settings : -m j -V 4 -q 2 -lowpass 17.6 --abr 128[/b]



[img]http://www.shotpix.com/images/39741266100115848635.gif

[/img]

[img]http://www.shotpix.com/images/11727913511611213776.jpg[/img]


[img]http://www.shotpix.com/images/89546266747779139333.jpg[/img]


[img]http://www.shotpix.com/images/60471282238031126766.jpg[/img]

[img]http://www.shotpix.com/images/66661115893417447681.jpg[/img]


[img]http://www.shotpix.com/images/70079538530081608834.jpg[/img]


[img]http://www.shotpix.com/images/27869578441493607334.jpg[/img]

[img]http://www.shotpix.com/images/06579233777291415826.gif[/img]


[img]http://www.shotpix.com/images/37530658244654420663.jpg[/img]